HIERARCHY
ROOT Pelvis
{
	OFFSET 0.000000 0.000000 0.000000
	CHANNELS 6 Xposition Yposition Zposition Xrotation Yrotation Zrotation
	JOINT LeftUpLeg_virtual
	{
		OFFSET 0.000000 0.000000 0.000000
		CHANNELS 3 Xrotation Yrotation Zrotation
		JOINT LeftUpLeg
		{
			OFFSET 18.735201 -5.666702 -4.541200
			CHANNELS 3 Xrotation Yrotation Zrotation
			JOINT LeftLeg
			{
				OFFSET -0.021200 -31.938179 0.493100
				CHANNELS 3 Xrotation Yrotation Zrotation
				JOINT LeftFoot
				{
					OFFSET 0.021200 -31.938179 -4.336299
					CHANNELS 3 Xrotation Yrotation Zrotation
					JOINT LeftToeBase
					{
						OFFSET 0.943001 -26.722000 15.023500
						CHANNELS 3 Xrotation Yrotation Zrotation
						End Site
						{
							OFFSET 0 0 0
						}
					}
				}
			}
		}
	}
	JOINT RightUpLeg_virtual
	{
		OFFSET 0.000000 0.000000 0.000000
		CHANNELS 3 Xrotation Yrotation Zrotation
		JOINT RightUpLeg
		{
			OFFSET -18.735201 -5.666702 -4.541200
			CHANNELS 3 Xrotation Yrotation Zrotation
			JOINT RightLeg
			{
				OFFSET 0.018946 -31.938133 0.493100
				CHANNELS 3 Xrotation Yrotation Zrotation
				JOINT RightFoot
				{
					OFFSET -0.018946 -31.938126 -4.336299
					CHANNELS 3 Xrotation Yrotation Zrotation
					JOINT RightToeBase
					{
						OFFSET -0.943001 -26.722004 15.023500
						CHANNELS 3 Xrotation Yrotation Zrotation
						End Site
						{
							OFFSET 0 0 0
						}
					}
				}
			}
		}
	}
	JOINT Hips_virtual
	{
		OFFSET 0.000000 0.000000 0.000000
		CHANNELS 3 Xrotation Yrotation Zrotation
		JOINT Hips
		{
			OFFSET -0.000000 -0.000000 -0.000000
			CHANNELS 3 Xrotation Yrotation Zrotation
			JOINT Spine
			{
				OFFSET 0.000000 10.199997 -0.299500
				CHANNELS 3 Xrotation Yrotation Zrotation
				JOINT Spine1
				{
					OFFSET 0.000000 11.900002 -1.516600
					CHANNELS 3 Xrotation Yrotation Zrotation
					JOINT Spine2
					{
						OFFSET 0.000000 13.600006 -2.842500
						CHANNELS 3 Xrotation Yrotation Zrotation
						JOINT Neck_virtual
						{
							OFFSET 0.000000 0.000000 0.000000
							CHANNELS 3 Xrotation Yrotation Zrotation
							JOINT Neck
							{
								OFFSET 0.000000 9.624100 -2.890100
								CHANNELS 3 Xrotation Yrotation Zrotation
								JOINT Head
								{
									OFFSET 0.000000 14.068802 -1.351900
									CHANNELS 3 Xrotation Yrotation Zrotation
									End Site
									{
										OFFSET 0 0 0
									}
								}
							}
						}
						JOINT LeftShoulder_virtual
						{
							OFFSET 0.000000 0.000000 0.000000
							CHANNELS 3 Xrotation Yrotation Zrotation
							JOINT LeftShoulder
							{
								OFFSET 15.263000 10.923401 -0.547700
								CHANNELS 3 Xrotation Yrotation Zrotation
								JOINT LeftArm
								{
									OFFSET 25.438599 -2.830597 -13.032500
									CHANNELS 3 Xrotation Yrotation Zrotation
									JOINT LeftForeArm
									{
										OFFSET 29.960503 0.000000 0.000000
										CHANNELS 3 Xrotation Yrotation Zrotation
										JOINT LeftHand
										{
											OFFSET 27.849251 0.000000 0.000000
											CHANNELS 3 Xrotation Yrotation Zrotation
											End Site
											{
												OFFSET 0 0 0
											}
										}
									}
								}
							}
						}
						JOINT RightShoulder_virtual
						{
							OFFSET 0.000000 0.000000 0.000000
							CHANNELS 3 Xrotation Yrotation Zrotation
							JOINT RightShoulder
							{
								OFFSET -15.263000 10.923401 -0.547700
								CHANNELS 3 Xrotation Yrotation Zrotation
								JOINT RightArm
								{
									OFFSET -25.438599 -2.830597 -13.032500
									CHANNELS 3 Xrotation Yrotation Zrotation
									JOINT RightForeArm
									{
										OFFSET -29.960503 0.000000 0.000000
										CHANNELS 3 Xrotation Yrotation Zrotation
										JOINT RightHand
										{
											OFFSET -27.849251 0.000000 0.000000
											CHANNELS 3 Xrotation Yrotation Zrotation
											End Site
											{
												OFFSET 0 0 0
											}
										}
									}
								}
							}
						}
					}
				}
			}
		}
	}
}
MOTION
Frames: 5
Frame Time: 0.03333333
0.715569 92.175552 6.310999 0.000000 0.000000 0.000000 -5.343727 -7.737362 6.037368 -29.900686 6.595691 10.641346 17.150713 9.027016 0.834747 36.875406 9.416385 2.633541 0.000000 0.000000 0.000000 -5.343727 -7.737362 6.037368 -10.292262 -10.404923 18.674354 24.737058 -11.922391 -1.340414 -14.328801 -12.160987 -25.126365 0.000000 0.000000 0.000000 -5.343727 -7.737362 6.037368 0.000000 0.000000 0.000000 0.572643 1.000342 -3.240040 0.947294 2.037201 -4.377106 0.000000 0.000000 0.000000 0.968934 2.043659 -4.365420 1.163140 0.430039 1.609102 0.000000 0.000000 0.000000 0.968934 2.043659 -4.365420 1.058071 -0.340529 -4.891288 -16.372110 12.814411 -32.934025 0.000012 -24.507076 0.000009 0.000000 0.000000 0.000000 0.968934 2.043659 -4.365420 0.199127 -5.464830 5.846318 -40.201213 28.677461 7.199775 -0.000002 4.457084 0.000002 0.000000 0.000000 0.000000 
0.290559 92.321518 7.365715 0.000000 0.000000 0.000000 -5.494855 -10.633766 6.553824 -31.159241 6.629111 9.498269 17.356629 9.000814 0.824530 37.603811 7.957382 -0.250873 0.000000 0.000000 0.000000 -5.494855 -10.633766 6.553824 -9.647763 -10.232360 17.742789 26.908119 -11.840579 -1.234436 -15.618944 -10.728273 -23.391530 0.000000 0.000000 0.000000 -5.494855 -10.633766 6.553824 0.000000 0.000000 0.000001 0.701703 1.182508 -3.497838 1.150022 2.492869 -4.561967 0.000000 0.000000 0.000000 1.175537 2.502168 -4.546986 1.101812 0.498605 1.559083 0.000000 0.000000 0.000000 1.175537 2.502168 -4.546986 0.919752 0.306316 -3.868007 -17.993285 11.628147 -29.784133 -0.000008 -26.012419 -0.000004 0.000000 0.000000 0.000000 1.175537 2.502168 -4.546986 0.206929 -5.347462 5.805464 -41.452401 31.404103 7.845452 0.000022 4.254778 -0.000000 0.000000 0.000000 0.000000 
-0.163314 92.445053 8.404839 0.000000 0.000000 0.000000 -5.649715 -13.531301 7.005344 -32.235638 6.800117 8.210003 17.461058 9.037776 0.829983 38.453057 6.738230 -3.044535 0.000000 0.000000 0.000000 -5.649715 -13.531301 7.005344 -9.034662 -10.072834 16.743242 29.174108 -11.738835 -1.117483 -16.952946 -9.374035 -21.567854 0.000000 0.000000 0.000000 -5.649715 -13.531301 7.005344 0.000000 -0.000001 0.000001 0.830206 1.370813 -3.732930 1.350766 2.961714 -4.730877 0.000000 0.000000 0.000000 1.379869 2.974014 -4.712208 1.044993 0.564920 1.508426 0.000000 0.000000 0.000000 1.379869 2.974014 -4.712208 0.757069 0.956894 -2.838908 -19.446298 10.332252 -26.706629 -0.000005 -27.039606 -0.000017 0.000000 0.000000 0.000000 1.379869 2.974014 -4.712208 0.212557 -5.230999 5.754128 -42.739506 34.146513 8.565999 -0.000010 4.063298 -0.000001 0.000000 0.000000 0.000000 
-0.655660 92.547440 9.417788 0.000000 0.000000 0.000000 -5.819889 -16.374352 7.367267 -33.189764 7.097688 6.778931 17.483677 9.139160 0.853677 39.496764 5.870454 -5.699767 0.000000 0.000000 0.000000 -5.819889 -16.374352 7.367267 -8.380637 -9.925100 15.733885 31.370475 -11.611175 -1.002665 -18.241419 -8.136585 -19.717117 0.000000 0.000000 0.000000 -5.819889 -16.374352 7.367267 0.000000 0.000001 -0.000001 0.959150 1.572706 -3.936978 1.552686 3.454293 -4.875777 0.000000 0.000000 0.000000 1.585065 3.469683 -4.853021 0.997661 0.625156 1.457885 0.000000 0.000000 0.000000 1.585065 3.469683 -4.853021 0.574223 1.603290 -1.815877 -20.697787 9.000522 -23.723486 -0.000010 -27.489794 -0.000003 0.000000 0.000000 0.000000 1.585065 3.469683 -4.853021 0.215349 -5.122707 5.672776 -43.983987 36.850158 9.221137 0.000004 3.892980 0.000002 0.000000 0.000000 0.000000 
-1.245983 92.639549 10.364515 0.000000 0.000000 0.000000 -6.031111 -19.062677 7.531246 -34.181091 7.585414 5.187077 17.416035 9.325223 0.905701 40.992483 5.725474 -8.195914 0.000000 0.000000 0.000000 -6.031111 -19.062677 7.531246 -7.485886 -9.878626 14.910108 33.074737 -11.454779 -0.904875 -19.155269 -7.122033 -18.022170 0.000000 0.000000 0.000000 -6.031111 -19.062677 7.531246 0.000000 -0.000001 0.000000 1.102353 1.818276 -4.110945 1.780583 4.029427 -4.976536 0.000000 0.000000 0.000000 1.816225 4.047996 -4.948805 0.970670 0.667026 1.407410 0.000000 0.000000 0.000000 1.816225 4.047996 -4.948805 0.374556 2.240370 -0.806798 -21.745716 7.692717 -20.829157 -0.000004 -27.338003 -0.000001 0.000000 0.000000 0.000000 1.816225 4.047996 -4.948805 0.214939 -5.027858 5.548212 -45.098172 39.487731 9.681366 -0.000006 3.811696 0.000006 0.000000 0.000000 0.000000 
